<svg width="605" height="587" viewBox="0 0 605 587" fill="none" xmlns="http://www.w3.org/2000/svg">
<path d="M277.904 586.1C122.952 586.1 28.0508 474.567 0 396.398L95.89 364.984C112.522 407.41 174.333 485.277 277.904 485.277C363.47 485.277 463.383 437.673 463.383 303.514C463.383 294.273 462.802 279.575 460.031 261.988L458.617 253.01L451.388 258.53C394.555 301.994 330.336 324.034 260.53 324.034C152.399 324.034 76.8897 257.412 76.8897 162.025C76.8897 66.6381 156.712 0 266.698 0C333.838 0 391.996 16.1511 439.65 48.012C420.482 81.5769 399.929 108.611 378.471 128.466C348.336 110.119 310.765 100.823 266.698 100.823C213.473 100.823 177.713 125.421 177.713 162.025C177.713 218.797 241.099 223.211 260.524 223.211C361.995 223.211 444.935 154.5 513.959 13.1846L604.843 56.8558C584.821 97.8733 562.859 134.785 539.507 166.64L537.702 169.092L538.864 171.903C555.435 212.205 564.195 257.709 564.195 303.514C564.195 497.668 415.79 586.1 277.893 586.1H277.904Z" fill="black"/>
</svg>
